<svg width="162" height="46" viewBox="0 0 162 46" fill="none" xmlns="http://www.w3.org/2000/svg">
<path d="M11.9674 0.5C11.2347 0.5 10.9295 1.04952 10.9295 1.53799C10.9295 2.14857 11.2958 2.6981 11.9674 2.6981H21.6757V32.922C21.6757 40.0047 18.0733 43.3019 11.9674 43.3019C6.5943 43.3019 2.1981 40.7374 2.1981 35.3033C2.1981 34.5706 1.58752 34.2042 1.03799 34.2042C0.488467 34.2042 0 34.5706 0 35.4254C0 41.0427 4.45726 45.5 11.9674 45.5C18.6839 45.5 23.8738 42.0807 23.8738 32.922V1.59905C23.8738 0.866349 23.3243 0.5 22.7748 0.5H11.9674Z" fill="#AD577C"/>
<path d="M43.0023 45.5C48.8639 45.5 53.8096 40.3711 53.8096 34.5095V17.3521C53.8096 16.8026 53.3822 16.3141 52.7716 16.3141C52.161 16.3141 51.6726 16.8026 51.6726 17.3521V34.5095C51.6726 39.0889 47.8259 43.363 43.0023 43.363C38.1176 43.363 34.2709 39.0278 34.2709 34.5095V17.4132C34.2709 16.8636 33.7825 16.3141 33.2329 16.3141C32.6223 16.3141 32.1339 16.8636 32.1339 17.4132V34.5095C32.1339 40.31 37.0185 45.5 43.0023 45.5Z" fill="#AD577C"/>
<path d="M69.587 15.9478C65.8624 15.9478 62.0158 17.3521 62.0158 18.5122C62.0158 18.9396 62.4432 19.7334 63.1148 19.7334C63.8475 19.7334 65.6793 18.0848 69.4649 18.0848C75.2654 18.0848 77.5246 23.0916 77.5246 27.671V29.3806H74.1053C65.6182 29.3806 59.8787 30.9681 59.8787 37.4403C59.8787 42.9355 63.6033 45.5 68.3658 45.5C72.3957 45.5 75.4486 43.2408 77.5246 40.8596V44.0346C77.5246 44.6452 78.013 45.1336 78.6236 45.1336C79.2342 45.1336 79.6616 44.6452 79.6616 44.0346V27.671C79.6616 21.6262 77.0972 15.9478 69.587 15.9478ZM77.5246 36.6465C77.5246 39.272 72.8841 43.363 68.3048 43.363C64.7634 43.363 62.0158 41.5312 62.0158 37.4403C62.0158 32.1282 67.8774 31.5176 74.1664 31.5176H77.5246V36.6465Z" fill="#AD577C"/>
<path d="M89.8493 26.9383C89.8493 21.382 94.0623 18.0848 98.2143 18.0848C102.977 18.0848 106.885 22.481 106.885 26.9383V44.0346C106.885 44.7673 107.434 45.1336 107.923 45.1336C108.472 45.1336 109.022 44.7673 109.022 44.0346V26.9383C109.022 20.8935 104.015 15.9478 98.0311 15.9478C93.9402 15.9478 91.1926 18.2069 89.8493 20.5882V17.3521C89.8493 16.7415 89.3608 16.3141 88.7503 16.3141C88.1397 16.3141 87.7123 16.7415 87.7123 17.3521V44.0346C87.7123 44.5841 88.1397 45.1336 88.7503 45.1336C89.3608 45.1336 89.8493 44.5841 89.8493 44.0346V26.9383Z" fill="#AD577C"/>
<path d="M118.147 16.3141C117.597 16.3141 117.109 16.7415 117.109 17.3521V44.0346C117.109 44.5841 117.597 45.1336 118.147 45.1336C118.757 45.1336 119.246 44.5841 119.246 44.0346V17.3521C119.246 16.7415 118.757 16.3141 118.147 16.3141ZM118.147 2.94233C117.047 2.94233 116.193 3.79715 116.193 4.83514C116.193 5.87313 117.047 6.78901 118.147 6.78901C119.185 6.78901 120.039 5.87313 120.039 4.83514C120.039 3.79715 119.185 2.94233 118.147 2.94233Z" fill="#AD577C"/>
<path d="M127.421 36.6465C127.421 42.5692 130.535 45.1336 136.336 45.1336H137.74C138.29 45.1336 138.778 44.6452 138.778 44.0346C138.778 43.424 138.29 42.9966 137.74 42.9966H136.336C131.329 42.9966 129.558 41.287 129.558 36.6465V18.4512H137.801C138.351 18.4512 138.839 17.9627 138.839 17.4132C138.839 16.8026 138.351 16.3141 137.801 16.3141H129.558V3.24762C129.558 2.63704 129.009 2.20963 128.459 2.20963C127.971 2.20963 127.421 2.63704 127.421 3.24762V36.6465Z" fill="#AD577C"/>
<path d="M151.873 15.9478C148.148 15.9478 144.301 17.3521 144.301 18.5122C144.301 18.9396 144.729 19.7334 145.401 19.7334C146.133 19.7334 147.965 18.0848 151.751 18.0848C157.551 18.0848 159.81 23.0916 159.81 27.671V29.3806H156.391C147.904 29.3806 142.164 30.9681 142.164 37.4403C142.164 42.9355 145.889 45.5 150.652 45.5C154.681 45.5 157.734 43.2408 159.81 40.8596V44.0346C159.81 44.6452 160.299 45.1336 160.909 45.1336C161.52 45.1336 161.947 44.6452 161.947 44.0346V27.671C161.947 21.6262 159.383 15.9478 151.873 15.9478ZM159.81 36.6465C159.81 39.272 155.17 43.363 150.59 43.363C147.049 43.363 144.301 41.5312 144.301 37.4403C144.301 32.1282 150.163 31.5176 156.452 31.5176H159.81V36.6465Z" fill="#AD577C"/>
</svg>
