<svg width="66" height="13" viewBox="0 0 66 13" fill="none" xmlns="http://www.w3.org/2000/svg">
<path d="M3.65522 11.9167L4.91459 7.80001L1.58334 5.41668H5.70001L7.00001 1.08334L8.30001 5.41668H12.4167L9.08543 7.80001L10.3448 11.9167L7.00001 9.37084L3.65522 11.9167Z" fill="#AD577C"/>
<path d="M16.6552 11.9167L17.9146 7.80001L14.5833 5.41668H18.7L20 1.08334L21.3 5.41668H25.4167L22.0854 7.80001L23.3448 11.9167L20 9.37084L16.6552 11.9167Z" fill="#AD577C"/>
<path d="M29.6552 11.9167L30.9146 7.80001L27.5833 5.41668H31.7L33 1.08334L34.3 5.41668H38.4167L35.0854 7.80001L36.3448 11.9167L33 9.37084L29.6552 11.9167Z" fill="#AD577C"/>
<path d="M46 4.82084V8.01668L47.3 9.01876L46.8125 7.36668L48.0313 6.50001H46.5146L46 4.82084ZM42.6552 11.9167L43.9146 7.80001L40.5833 5.41668H44.7L46 1.08334L47.3 5.41668H51.4167L48.0854 7.80001L49.3448 11.9167L46 9.37084L42.6552 11.9167Z" fill="#AD577C"/>
<path d="M57.7 9.01876L59 8.01668L60.3 9.01876L59.8125 7.36668L61.0313 6.50001H59.5146L59 4.82084L58.4854 6.50001H56.9688L58.1875 7.36668L57.7 9.01876ZM55.6552 11.9167L56.9146 7.80001L53.5833 5.41668H57.7L59 1.08334L60.3 5.41668H64.4167L61.0854 7.80001L62.3448 11.9167L59 9.37084L55.6552 11.9167Z" fill="#AD577C"/>
</svg>
